<svg xmlns="http://www.w3.org/2000/svg" width="187" height="38" fill="none">
  <path fill="#BDBDBD" fill-rule="evenodd" d="M67.1282 6.68119c-3.1139-3.0634-7.3462-4.95794-11.9561-4.95794-4.609 0-8.8404 1.89545-11.956 4.95794-3.1892 3.13652-5.1619 7.47801-5.1619 12.27981 0 4.8018 1.9736 9.1432 5.1655 12.2798 3.1138 3.0634 7.3443 4.9579 11.956 4.9579 4.6082 0 8.8395-1.8955 11.9561-4.9579 3.1901-3.1375 5.1637-7.4789 5.1637-12.2798 0-4.8018-1.9736-9.14329-5.1655-12.27981h-.0018Zm-11.9561-5.5013c5.2255 0 9.898 2.02542 13.227 5.30003 3.2546 3.19879 5.2681 7.61248 5.2681 12.48108 0 4.8686-2.0154 9.2822-5.269 12.4828-3.3299 3.2728-8.0025 5.2983-13.227 5.2983-5.2254 0-9.898-2.0255-13.227-5.2983-3.2545-3.2006-5.2672-7.6142-5.2672-12.4828 0-4.8686 2.0127-9.28229 5.2672-12.48108 3.3308-3.27461 8.0025-5.30003 13.2279-5.30003Zm0 16.36401c.7925 0 1.4344.6345 1.4344 1.4171 0 .7825-.6419 1.417-1.4344 1.417-.7898 0-1.4316-.6345-1.4316-1.417 0-.7826.64-1.4171 1.4316-1.4171Zm103.8729 8.71h19.379l-9.689-23.46559-9.691 23.46559h.001Zm21.119 9.7715h2.293l-3.81-9.2281h-19.829l-3.812 9.2281h2.98v.5434h-6.836v-.5434h3.205l3.811-9.2281h-2.349v-.5434h2.574L169.044.461426 183.73 36.0254H187v.5434h-6.836v-.5434Zm-59.405-21.2976h2.382c.967 0 2.079 0 3.032-.5506.512-.2978 1.001-.7419 1.448-1.2699.507-.5993.953-1.307 1.316-2.0327.352-.6977.618-1.39898.836-2.08134.217-.68416.392-1.36743.55-2.01007l.051-.2094c.296-1.20587.553-2.25649 1.12-3.06882.293-.41971.667-.77442 1.084-1.06506.478-.33125 1.018-.58127 1.563-.74915.552-.16879 1.1-.25273 1.646-.29515h.002c.519-.03971 1-.03971 1.481-.03971v.54336c-.42 0-.84 0-1.222.02888-.358.02708-.717.08304-1.073.19225-.408.12637-.824.32133-1.209.58669-.363.25543-.694.56863-.956.94321-.535.7672-.79 1.79616-1.077 2.97585l-.052.2094c-.157.63723-.331 1.31779-.556 2.02542-.227.70944-.497 1.42794-.844 2.12114-.372.7419-.835 1.4712-1.366 2.1003-.487.5749-1.031 1.065-1.616 1.4026-.159.0903-.321.1715-.483.2437h1.377c1.641 0 3.527 0 5.202 1.2546.726.5461 1.403 1.3413 2.012 2.2782.672 1.0334 1.26 2.2348 1.73 3.4542.445 1.1517.79 2.3377 1.075 3.5048.29 1.1824.511 2.3034.711 3.3531l.065.3484c.372 1.9695.696 3.6853 1.389 4.9769.322.5975.726 1.1075 1.147 1.5299.52.5199 1.063.899 1.511 1.14.35.1895.615.278.835.3186.175.0307.38.0307.583.0307v.5433c-.351 0-.703 0-1.157-.083-.412-.0749-.857-.2166-1.367-.4901-.508-.2726-1.116-.695-1.681-1.26-.445-.445-.872-.9839-1.211-1.6175-.715-1.3268-1.042-3.0598-1.416-5.0482l-.067-.3484c-.204-1.0741-.427-2.215-.704-3.3432-.279-1.1418-.621-2.3133-1.069-3.4732-.467-1.2149-1.044-2.3991-1.697-3.4028-.581-.8935-1.223-1.6481-1.899-2.1571-1.289-.9658-2.733-.9658-3.99-.9658h-3.916v-.0181c-.39.0181-.771.0181-1.138.0181h-2.382v20.756h2.732v.5434h-6.837v-.5434h2.732V1.89835h-2.732v-.54516h6.836v.54336h-2.731V14.7278Zm-16.593 21.2976h2.296L92.7361 2.78831 79.0098 36.0254h2.9822v.5434h-6.8359v-.5434h3.2046L93.0502.461426 107.736 36.0254h3.27v.5434h-6.836v-.5434h-.004ZM29.6977 1.89655V36.0254h2.7325v.5434h-6.8359v-.5434h2.728V1.89655H4.10518V36.2971H2.73255V1.89655H0v-.54336h32.4293v.54336h-2.7316Z" clip-rule="evenodd"/>
</svg>
