<svg xmlns="http://www.w3.org/2000/svg" width="160" height="32" fill="none">
  <path fill="#BDBDBD" d="m18.1315 9.23116.4074-.40789c0-4.89474-3.9115-8.361844-9.0046-8.361844C4.44119.461426.611173 3.92853.611173 8.41537c0 4.89473 3.055867 7.54603 6.926627 8.81053 1.01862.3263 2.28171.6934 3.2596.9382 1.9965.4894 4.2782 1.6723 4.2782 4.5276 0 2.6513-1.8335 4.4868-5.29683 4.4868-2.8114 0-5.58205-2.0394-5.50056-5.7105l-.40745-.4079-3.667035 1.2237L0 22.6917c.0814897 4.5684 4.23746 8.7697 9.77877 8.7697 6.31543 0 9.57503-4.4868 9.57503-8.7697 0-4.8947-3.0559-7.4645-6.9266-8.525l-3.25961-.9382c-3.1781-.9381-4.27821-2.3658-4.27821-4.81313 0-2.20263 1.83352-3.875 4.68566-3.875 2.85216 0 4.68566 2.03948 4.68566 4.2829l.4075.40789h3.4633ZM23.8485 4.74432l.4074.4079h6.6007V30.4417l.4074.4079h3.5041l.4074-.4079V5.15222h6.6007l.4075-.4079V1.48116l-.4075-.40789H24.2559l-.4074.40789v3.26316ZM47.4932 30.4417l.4075.4079h3.4633l.4074-.4079V17.593h.6112l9.3713 12.8487.4075.4079h4.4819v-.8158l-9.412-12.4816c4.5226-.1631 8.8008-3.1816 8.8008-8.11709 0-5.30263-4.2782-8.36184-9.1675-8.36184h-8.9639l-.4075.40789V30.4417Zm4.2782-16.7237V5.15222h5.2969c2.4447 0 4.6856 1.42763 4.6856 4.28289 0 2.85529-2.2409 4.28289-4.6856 4.28289h-5.2969ZM70.7305 30.4417l.4075.4079h17.1128l.4075-.4079v-3.2632l-.4075-.4079H75.0087V17.797h12.8347l.4074-.4079v-3.2632l-.4074-.4079H75.0087V5.15222h13.2421l.4075-.4079V1.48116l-.4075-.40789H71.138l-.4075.40789V30.4417ZM93.9678 30.4417l.4075.4079h17.1127l.408-.4079v-3.2632l-.408-.4079H98.246V1.48116l-.4074-.40789h-3.4633l-.4075.40789V30.4417ZM131.058 1.07327l-.407.40789-9.168 11.82894V1.48116l-.366-.40789h-3.504l-.408.40789V30.4417l.408.4079h3.463l.407-.4079V18.2048l9.575 12.2369.408.4079h4.686l.203-.4079-11.816-14.8882 11.409-14.07234-.204-.40789h-4.686ZM138.405 30.4417l.204.4079h3.871l.407-.4079 1.752-6.9342h9.127l1.752 6.9342.407.4079h3.871l.204-.4079-8.149-28.96054-.407-.40789h-4.482l-.408.40789-8.149 28.96054Zm10.798-24.0658 3.463 13.0526h-6.927l3.464-13.0526Z"/>
</svg>
