<svg width="32" height="32" viewBox="0 0 32 32" fill="none" xmlns="http://www.w3.org/2000/svg">
<path d="M9.04999 10.05C9.14296 10.1437 9.25356 10.2181 9.37542 10.2689C9.49728 10.3197 9.62798 10.3458 9.75999 10.3458C9.89201 10.3458 10.0227 10.3197 10.1446 10.2689C10.2664 10.2181 10.377 10.1437 10.47 10.05L15.07 5.45V29C15.07 29.2652 15.1754 29.5196 15.3629 29.7071C15.5504 29.8946 15.8048 30 16.07 30C16.3352 30 16.5896 29.8946 16.7771 29.7071C16.9646 29.5196 17.07 29.2652 17.07 29V5.48L21.64 10.05C21.8313 10.2138 22.0774 10.2994 22.329 10.2897C22.5807 10.28 22.8195 10.1757 22.9976 9.99756C23.1757 9.81947 23.28 9.58073 23.2897 9.32905C23.2994 9.07738 23.2138 8.8313 23.05 8.64L16.69 2.27C16.5213 2.10207 16.293 2.00779 16.055 2.00779C15.817 2.00779 15.5887 2.10207 15.42 2.27L9.04999 8.64C8.86374 8.82736 8.7592 9.08082 8.7592 9.345C8.7592 9.60919 8.86374 9.86264 9.04999 10.05Z" fill="#2F80ED"/>
</svg>
